<?xml version="1.0" standalone="no"?>
<!DOCTYPE svg PUBLIC "-//W3C//DTD SVG 20010904//EN"
 "http://www.w3.org/TR/2001/REC-SVG-20010904/DTD/svg10.dtd">
<svg version="1.0" xmlns="http://www.w3.org/2000/svg"
 width="300.000000pt" height="300.000000pt" viewBox="0 0 300.000000 300.000000"
 preserveAspectRatio="xMidYMid meet">
<metadata>
Created by potrace 1.14, written by Peter Selinger 2001-2017
</metadata>
<g transform="translate(0.000000,300.000000) scale(0.100000,-0.100000)"
fill="#000000" stroke="none">
<path d="M2988 1505 l2 -1495 -1497 -3 -1498 -2 1503 -3 1502 -2 0 1500 c0
825 -3 1500 -7 1500 -5 0 -7 -673 -5 -1495z"/>
<path d="M713 2666 c3 -50 10 -323 17 -606 13 -534 4 -1121 -24 -1563 -6 -104
-9 -190 -6 -192 4 -2 26 1 51 6 40 10 293 8 329 -2 11 -3 15 4 14 26 -26 519
-32 1165 -11 1165 23 0 548 -594 755 -853 51 -65 128 -168 170 -230 50 -74 81
-111 91 -109 47 9 354 13 399 4 l52 -9 0 41 c0 38 -8 49 -102 151 -95 103
-999 1122 -1025 1156 -11 13 45 70 380 390 460 440 534 509 653 613 49 43 90
81 92 86 2 4 -55 6 -125 3 -70 -3 -147 -1 -170 5 l-43 10 -68 -87 c-89 -111
-355 -396 -591 -632 -190 -190 -457 -423 -472 -413 -19 11 -4 966 16 1090 l5
31 -142 -5 c-79 -2 -167 0 -196 6 l-54 10 5 -92z"/>
</g>
</svg>
